<svg width="96" height="96" viewBox="0 0 96 96" fill="none" xmlns="http://www.w3.org/2000/svg">
<mask id="mask0_1431_25" style="mask-type:alpha" maskUnits="userSpaceOnUse" x="0" y="0" width="96" height="96">
<rect width="96" height="96" fill="#D9D9D9"/>
</mask>
<g mask="url(#mask0_1431_25)">
<path d="M45.9 57.9L31.4 43.4C31.2 43.2 31.05 42.9833 30.95 42.75C30.85 42.5167 30.8 42.2667 30.8 42C30.8 41.4667 30.9833 41 31.35 40.6C31.7167 40.2 32.2 40 32.8 40H63.2C63.8 40 64.2833 40.2 64.65 40.6C65.0167 41 65.2 41.4667 65.2 42C65.2 42.1333 65 42.6 64.6 43.4L50.1 57.9C49.7667 58.2333 49.4333 58.4667 49.1 58.6C48.7667 58.7333 48.4 58.8 48 58.8C47.6 58.8 47.2333 58.7333 46.9 58.6C46.5667 58.4667 46.2333 58.2333 45.9 57.9Z" fill="white"/>
</g>
</svg>
