<svg width="96" height="96" viewBox="0 0 96 96" fill="none" xmlns="http://www.w3.org/2000/svg">
<mask id="mask0_1431_19" style="mask-type:alpha" maskUnits="userSpaceOnUse" x="0" y="0" width="96" height="96">
<rect width="96" height="96" fill="#D9D9D9"/>
</mask>
<g mask="url(#mask0_1431_19)">
<path d="M16 72C14.8667 72 13.9167 71.6167 13.15 70.85C12.3833 70.0833 12 69.1333 12 68C12 66.8667 12.3833 65.9167 13.15 65.15C13.9167 64.3833 14.8667 64 16 64H80C81.1333 64 82.0833 64.3833 82.85 65.15C83.6167 65.9167 84 66.8667 84 68C84 69.1333 83.6167 70.0833 82.85 70.85C82.0833 71.6167 81.1333 72 80 72H16ZM16 52C14.8667 52 13.9167 51.6167 13.15 50.85C12.3833 50.0833 12 49.1333 12 48C12 46.8667 12.3833 45.9167 13.15 45.15C13.9167 44.3833 14.8667 44 16 44H80C81.1333 44 82.0833 44.3833 82.85 45.15C83.6167 45.9167 84 46.8667 84 48C84 49.1333 83.6167 50.0833 82.85 50.85C82.0833 51.6167 81.1333 52 80 52H16ZM16 32C14.8667 32 13.9167 31.6167 13.15 30.85C12.3833 30.0833 12 29.1333 12 28C12 26.8667 12.3833 25.9167 13.15 25.15C13.9167 24.3833 14.8667 24 16 24H80C81.1333 24 82.0833 24.3833 82.85 25.15C83.6167 25.9167 84 26.8667 84 28C84 29.1333 83.6167 30.0833 82.85 30.85C82.0833 31.6167 81.1333 32 80 32H16Z" fill="white"/>
</g>
</svg>
